<svg width="132" height="132" viewBox="0 0 132 132" fill="none" xmlns="http://www.w3.org/2000/svg">
<rect width="132" height="132" rx="66" fill="#E3F5FF"/>
<path d="M78 68.9998V75.9998C78 76.5302 77.7893 77.0389 77.4142 77.414C77.0391 77.7891 76.5304 77.9998 76 77.9998H56C55.4696 77.9998 54.9609 77.7891 54.5858 77.414C54.2107 77.0389 54 76.5302 54 75.9998V68.9998C54 68.7346 54.1054 68.4802 54.2929 68.2927C54.4804 68.1052 54.7348 67.9998 55 67.9998C55.2652 67.9998 55.5196 68.1052 55.7071 68.2927C55.8946 68.4802 56 68.7346 56 68.9998V75.9998H76V68.9998C76 68.7346 76.1054 68.4802 76.2929 68.2927C76.4804 68.1052 76.7348 67.9998 77 67.9998C77.2652 67.9998 77.5196 68.1052 77.7071 68.2927C77.8946 68.4802 78 68.7346 78 68.9998ZM61.7075 60.7073L65 57.4136V68.9998C65 69.265 65.1054 69.5194 65.2929 69.7069C65.4804 69.8945 65.7348 69.9998 66 69.9998C66.2652 69.9998 66.5196 69.8945 66.7071 69.7069C66.8946 69.5194 67 69.265 67 68.9998V57.4136L70.2925 60.7073C70.4801 60.895 70.7346 61.0004 71 61.0004C71.2654 61.0004 71.5199 60.895 71.7075 60.7073C71.8951 60.5197 72.0006 60.2652 72.0006 59.9998C72.0006 59.7344 71.8951 59.48 71.7075 59.2923L66.7075 54.2923C66.6146 54.1993 66.5043 54.1256 66.3829 54.0753C66.2615 54.0249 66.1314 53.999 66 53.999C65.8686 53.999 65.7385 54.0249 65.6171 54.0753C65.4957 54.1256 65.3854 54.1993 65.2925 54.2923L60.2925 59.2923C60.1049 59.48 59.9994 59.7344 59.9994 59.9998C59.9994 60.2652 60.1049 60.5197 60.2925 60.7073C60.4801 60.895 60.7346 61.0004 61 61.0004C61.2654 61.0004 61.5199 60.895 61.7075 60.7073Z" fill="#1C1C1C"/>
</svg>
